<svg width="26" height="30" viewBox="0 0 26 30" fill="current" xmlns="http://www.w3.org/2000/svg">
<path d="M20.3803 5.24761e-05C19.0002 0.0123951 17.6807 0.569326 16.7092 1.54965C15.7376 2.52997 15.1925 3.85434 15.1925 5.23456C15.1925 5.92198 15.3279 6.60268 15.5909 7.23778C15.854 7.87289 16.2395 8.44996 16.7256 8.93606C17.2117 9.42215 17.7887 9.80775 18.4238 10.0708C19.0589 10.3339 19.7396 10.4693 20.427 10.4693C21.1145 10.4694 21.7952 10.334 22.4303 10.0709C23.0654 9.80783 23.6425 9.42224 24.1286 8.93614C24.6147 8.45004 25.0003 7.87296 25.2633 7.23784C25.5264 6.60272 25.6618 5.922 25.6618 5.23456C25.6617 3.84625 25.1102 2.51482 24.1285 1.53316C23.1468 0.551498 21.8153 2.37816e-05 20.427 5.24761e-05C20.4114 -1.7492e-05 20.396 -1.7492e-05 20.3803 5.24761e-05ZM11.4811 0.52903C8.95054 0.540943 6.43136 1.58759 4.92072 3.66393C3.39025 5.76753 3.10582 6.91362 3.00011 11.4063C2.95523 13.3155 2.82616 15.268 2.7131 15.7447C2.44996 16.8546 1.70281 17.7356 0.750512 18.0592C0.337705 18.1995 0 18.3855 0 18.4725C0 18.5595 0.472176 18.8666 1.04911 19.1553C2.07167 19.667 4.53372 20.2535 6.70819 20.5036L7.78714 20.6276V23.6164V26.6052H11.6336H15.4803V23.6145V20.6237L16.3714 20.5091C19.7427 20.0754 23.1935 18.9966 22.9804 18.4429C22.9409 18.3397 22.6092 18.1538 22.2435 18.0297C21.3771 17.7357 20.636 16.8393 20.3629 15.7547C20.2427 15.2773 20.1147 13.3647 20.0778 11.5047C20.0767 11.4556 20.0751 11.4121 20.074 11.3638C18.7716 11.2888 17.5269 10.8009 16.5205 9.97077C15.5141 9.14067 14.7983 8.01157 14.4768 6.7472C11.4552 6.20372 7.74402 6.5362 5.57791 7.74687C4.58302 8.3029 4.66512 8.28916 4.52327 7.91952C4.0898 6.78991 4.96348 5.60763 6.34692 5.4517C7.1297 5.36347 7.27045 5.2784 7.48553 4.76362C7.99199 3.5515 9.96762 2.39967 11.5397 2.39967C12.5354 2.39967 13.6916 2.86229 14.5351 3.50899C14.75 2.77535 15.1 2.08829 15.5671 1.48315C14.3181 0.840402 12.898 0.522263 11.4811 0.52903ZM20.6477 1.36461C21.105 1.36461 21.4731 1.73297 21.4731 2.19026V4.40974H23.6926C24.1498 4.40974 24.5182 4.77783 24.5182 5.23511C24.5182 5.6924 24.1497 6.06048 23.6926 6.06048H21.4731V8.27997C21.4731 8.73725 21.1049 9.10533 20.6477 9.10533C20.1904 9.10533 19.8223 8.73724 19.8223 8.27997V6.06048H17.6029C17.1456 6.06048 16.7775 5.69239 16.7775 5.23511C16.7775 4.77782 17.1456 4.40974 17.6029 4.40974H19.8223V2.19026C19.8223 1.73297 20.1905 1.36461 20.6477 1.36461ZM11.6146 8.19821C11.7594 8.19874 12.1019 8.33477 12.525 8.56752C13.0668 8.86556 14.1164 9.34178 14.8575 9.62575C17.4211 10.6081 17.988 11.4687 17.5504 13.7142C17.1215 15.9149 15.9813 17.4121 14.0815 18.2692C12.3898 19.0324 10.3684 18.9997 8.76802 18.1833C6.443 16.9971 5.3579 14.8892 5.3508 11.5472C5.34813 10.2364 5.38349 10.0928 5.70879 10.0928C6.15991 10.0928 7.16389 9.26467 7.3239 8.7606C7.43342 8.41553 7.52026 8.4543 8.32853 9.2103C9.40305 10.2154 10.9287 10.8258 12.8534 11.021C13.6274 11.0994 14.2798 11.1498 14.3033 11.1328C14.3264 11.1159 13.9195 10.7766 13.3981 10.379C12.4154 9.62955 11.54 8.62358 11.54 8.24404C11.54 8.21292 11.5669 8.19802 11.6146 8.19821ZM4.78481 21.3107L4.28153 21.4369C2.91901 21.7789 0.84918 23.4717 0.358828 24.6453C0.221261 24.9746 0.140488 25.6047 0.109132 26.6165C1.48745 27.9043 3.06679 28.9584 4.78483 29.7373V25.7406L4.78481 21.3107ZM18.7702 21.3513C18.5201 21.3513 18.4824 21.9238 18.4824 25.7607V30C20.1857 29.3054 21.7676 28.3439 23.1686 27.1518C23.1456 24.6776 22.9165 24.0925 21.6927 22.9869C20.8967 22.2677 19.2592 21.3513 18.7702 21.3513Z" fill="current"/>
</svg>
