<svg width="27" height="30" viewBox="0 0 27 30" fill="current" xmlns="http://www.w3.org/2000/svg">
<path d="M2.47753 29.9713C1.9082 29.8872 1.36755 29.6465 0.914858 29.2755C0.650253 29.0587 0.327625 28.5524 0.165452 28.0994L0.0275486 27.7142L0.015617 19.4791L0.00368502 11.244H13.1231H26.2426L26.2307 19.4791L26.2188 27.7142L26.0809 28.0994C25.7523 29.0168 25.1408 29.5942 24.1847 29.8897L23.8498 29.9932L13.2794 29.9995C7.46564 30.0028 2.60465 29.9903 2.47719 29.9714L2.47753 29.9713ZM14.2028 24.2351C14.5259 24.0858 14.6615 23.9546 14.8193 23.639C15.0496 23.1782 15.0495 22.7747 14.8189 22.3135C14.6615 21.9985 14.5257 21.8672 14.2027 21.718L13.9278 21.591H10.3075H6.68715L6.41221 21.718C6.08927 21.8672 5.95345 21.9985 5.79601 22.3135C5.64306 22.6195 5.589 22.9229 5.63953 23.192C5.68587 23.4388 5.86624 23.8214 6.00888 23.9754C6.1264 24.1024 6.46839 24.2815 6.69814 24.3366C6.79155 24.359 8.43127 24.3735 10.3969 24.3695L13.9278 24.3622L14.2028 24.2351ZM19.8344 18.6035C20.1575 18.4542 20.2931 18.323 20.4509 18.0074C20.6812 17.5465 20.6811 17.1431 20.4504 16.6819C20.293 16.3669 20.1571 16.2356 19.8342 16.0864L19.5594 15.9594H13.1232H6.6871L6.41217 16.0864C6.08923 16.2356 5.9534 16.3669 5.79597 16.6819C5.64302 16.9879 5.58896 17.2913 5.63948 17.5604C5.68583 17.8072 5.8662 18.1898 6.00884 18.3438C6.12655 18.471 6.46879 18.6501 6.69809 18.7047C6.79323 18.7273 9.61409 18.7416 13.2126 18.7376L19.5594 18.7305L19.8344 18.6035ZM0.013851 7.70191L0.0283543 6.037L0.154162 5.67987C0.53422 4.60097 1.34291 3.94763 2.50676 3.7792C2.66732 3.75596 3.43606 3.73654 4.21509 3.73611L5.6315 3.73523L5.64545 2.53963L5.65939 1.34403L5.80211 1.04275C6.06668 0.48409 6.56099 0.119389 7.18194 0.0246472C8.04141 -0.106492 8.82662 0.293277 9.18164 1.04272L9.32436 1.344L9.33831 2.53961L9.35225 3.73521H13.1237H16.8951L16.909 2.53961L16.923 1.344L17.0657 1.04272C17.3302 0.48409 17.8245 0.119389 18.4455 0.0246472C19.305 -0.106492 20.0902 0.293277 20.4452 1.04272L20.5879 1.344L20.6019 2.53961L20.6158 3.73521L22.0322 3.73609C22.8112 3.73657 23.58 3.75597 23.7405 3.77918C24.9105 3.9485 25.7111 4.59524 26.0931 5.67985L26.2189 6.03698L26.2335 7.70188L26.248 9.36678H13.124H0L0.013851 7.70191Z" fill="current"/>
</svg>
