<svg width="31" height="31" viewBox="0 0 31 31" fill="none" xmlns="http://www.w3.org/2000/svg">
<path d="M16.3859 0.550941C16.0325 0.198173 15.5532 0 15.0535 0C14.5538 0 14.0745 0.198173 13.7211 0.550941L0.529025 13.7229C0.185733 14.0778 -0.00422263 14.5532 7.12423e-05 15.0465C0.00436512 15.5399 0.202565 16.0119 0.551982 16.3608C0.9014 16.7097 1.37408 16.9076 1.86821 16.9118C2.36234 16.9161 2.83839 16.7265 3.19383 16.3837L3.74601 15.8323V28.2253C3.74601 28.7244 3.94457 29.203 4.29799 29.5559C4.65142 29.9088 5.13077 30.107 5.6306 30.107H9.39977C9.89959 30.107 10.3789 29.9088 10.7324 29.5559C11.0858 29.203 11.2844 28.7244 11.2844 28.2253V24.4619C11.2844 23.9628 11.4829 23.4842 11.8363 23.1313C12.1898 22.7784 12.6691 22.5802 13.1689 22.5802H16.9381C17.4379 22.5802 17.9173 22.7784 18.2707 23.1313C18.6241 23.4842 18.8227 23.9628 18.8227 24.4619V28.2253C18.8227 28.7244 19.0212 29.203 19.3747 29.5559C19.7281 29.9088 20.2075 30.107 20.7073 30.107H24.4764C24.9763 30.107 25.4556 29.9088 25.809 29.5559C26.1625 29.203 26.361 28.7244 26.361 28.2253V15.8323L26.9132 16.3837C27.2686 16.7265 27.7447 16.9161 28.2388 16.9118C28.733 16.9076 29.2056 16.7097 29.5551 16.3608C29.9045 16.0119 30.1027 15.5399 30.107 15.0465C30.1113 14.5532 29.9213 14.0778 29.578 13.7229L16.3859 0.550941Z" fill="current"/>
</svg>
