<svg width="31" height="31" viewBox="0 0 31 31" fill="current" xmlns="http://www.w3.org/2000/svg">
<path d="M15.4841 0C9.80428 0 9.20778 0.0725082 8.41767 0.859781C7.67978 1.59501 7.53444 2.30033 7.53444 5.14609V7.66156L8.61645 7.58448C9.95439 7.4891 10.6915 7.71485 11.5447 8.48142C11.8992 8.79986 12.5086 9.15126 12.8992 9.26228C13.8194 9.52394 14.9563 10.6663 15.2419 11.6162C15.3556 11.9943 15.7211 12.6472 16.0543 13.0671C16.8574 14.0795 17.0607 14.7403 16.9366 15.9348C16.8814 16.4661 16.8364 17.0069 16.8364 17.1366C16.8364 17.2663 16.8814 17.8072 16.9366 18.3385C17.0624 19.5493 16.8545 20.203 16.0564 21.1064C15.7189 21.4885 15.3945 22.0073 15.3356 22.2594C15.1483 23.0609 14.4801 24.0479 13.8372 24.4718L13.2147 24.882V27.4945V30.107L20.6322 30.0693C28.8637 30.0273 28.7657 30.0391 29.5641 28.9964L30.0189 28.4025L30.063 18.9176L30.107 9.43302H26.0863C21.7992 9.43302 21.4808 9.38483 20.9878 8.66198C20.7428 8.30273 20.7037 7.75982 20.6606 4.12695L20.6116 0H15.4841ZM22.7608 0.235541L22.7182 3.69062C22.6948 5.59091 22.7099 7.23578 22.7525 7.34592C22.8117 7.49968 23.6344 7.54611 26.2968 7.54611C28.2036 7.54611 29.7998 7.48773 29.8442 7.41622C29.8885 7.34472 28.3128 5.69982 26.3427 3.76093L22.7608 0.235541ZM5.86475 9.50765C5.38894 9.52491 5.00111 9.756 4.40307 10.2944C4.05036 10.6119 3.42751 10.9597 2.96759 11.0958C2.09049 11.3553 1.65018 11.856 1.47325 12.7957C1.42191 13.0684 1.09544 13.6348 0.747496 14.0544C-0.0288575 14.9905 -0.124797 15.3398 0.117893 16.3478C0.265943 16.9627 0.265943 17.3106 0.117893 17.9255C-0.125951 18.9383 -0.0214022 19.3146 0.750578 20.2033C1.09724 20.6024 1.38228 21.0485 1.38419 21.1945C1.38609 21.3406 1.52135 21.7534 1.68466 22.1117C1.93679 22.665 2.10888 22.8107 2.82522 23.0768L3.66869 23.39L3.71122 26.7094C3.73464 28.535 3.787 30.0285 3.82771 30.0285C3.86842 30.0285 4.70575 29.6298 5.68817 29.1426L7.47435 28.2567L9.27933 29.141L11.0846 30.0254L11.1635 26.7033L11.2424 23.3811L11.9256 23.1803C12.849 22.9089 13.1794 22.5732 13.456 21.625C13.5847 21.1841 13.9598 20.4982 14.2896 20.1005L14.8894 19.377L14.8613 17.117C14.8459 15.874 14.8241 14.8043 14.8129 14.7397C14.8018 14.6751 14.5431 14.347 14.2382 14.0108C13.9333 13.6745 13.583 13.0662 13.4601 12.6591C13.1629 11.6753 12.845 11.3587 11.8717 11.0768C11.3856 10.9359 10.8724 10.6467 10.5977 10.3588C9.80074 9.52353 9.39856 9.39222 8.2975 9.60807C7.54943 9.75465 7.17112 9.75461 6.59606 9.60775C6.31538 9.53608 6.08104 9.49977 5.86476 9.50763L5.86475 9.50765ZM7.4762 13.2148C8.01432 13.2199 8.55659 13.2987 8.92 13.4494C10.2754 14.0115 11.3213 15.5835 11.3213 17.0587C11.3213 18.4734 10.025 20.2148 8.69904 20.5816C7.87054 20.8108 6.61479 20.7864 6.02315 20.5297C4.58464 19.9056 3.6804 18.5352 3.6804 16.9795C3.6804 15.4064 4.60105 14.0291 6.05828 13.4224C6.40413 13.2784 6.93807 13.2098 7.4762 13.2148V13.2148Z" fill="current"/>
</svg>
