<svg width="31" height="29" viewBox="0 0 31 29" fill="current" xmlns="http://www.w3.org/2000/svg">
<path d="M20.3382 28.1692C18.8886 28.0468 17.781 27.7062 16.7312 27.0601C14.9369 25.9559 13.4713 24.1253 12.7356 22.0696L12.3613 21.0236L13.2615 20.7125C14.6032 20.2487 15.4308 19.7984 16.6134 18.8887C17.7448 18.0184 18.9018 16.7388 19.5365 15.6558C20.5234 13.9717 21.1429 11.6674 21.1532 9.64159L21.1575 8.7768L21.8192 8.87592C24.423 9.26595 26.1054 10.1719 27.7254 12.0563C29.3638 13.962 30.107 15.9796 30.107 18.5213C30.107 20.5235 29.6691 22.2062 28.732 23.8054C28.5176 24.171 28.3423 24.5629 28.3423 24.6762C28.3423 24.89 29.4452 26.8508 29.8666 27.3861C30.1397 27.7331 30.1847 28.1807 29.9495 28.2104C29.1424 28.3122 27.0791 27.8783 26.153 27.412C25.6165 27.1419 25.4896 27.1269 25.1446 27.2929C23.639 28.017 22.0236 28.3115 20.3381 28.1692H20.3382ZM23.5264 20.2368C24.656 18.8732 25.6625 17.5444 25.763 17.2837C25.98 16.7212 25.8581 16.2064 25.4232 15.8488C24.845 15.3733 24.6517 15.5138 22.7491 17.7918L20.9284 19.9718L20.2374 19.2045C19.8573 18.7825 19.3979 18.3935 19.2166 18.3401C18.5694 18.1494 17.8813 19.063 18.1227 19.7924C18.1834 19.9755 18.7772 20.7498 19.4424 21.5129C21.0632 23.3724 20.882 23.429 23.5264 20.2368V20.2368ZM0.264632 19.3045C-0.105998 19.1327 -0.0932008 18.9782 0.340263 18.3917C0.69881 17.9065 1.59439 16.3856 1.84077 15.8435C1.94684 15.6101 1.88279 15.4187 1.49434 14.8076C0.835139 13.7707 0.510762 12.9647 0.225363 11.6546C-0.195736 9.72163 -0.0118898 7.87694 0.802439 5.86378C1.35244 4.50412 2.8851 2.64283 4.20373 1.73319C6.10368 0.422541 8.71296 -0.223674 10.92 0.0698454C15.8683 0.727941 19.5189 4.77513 19.5189 9.60298C19.5189 12.0311 18.7629 14.1583 17.2957 15.8586C14.4225 19.1882 10.1344 20.2524 6.08439 18.6408L4.81376 18.1352L3.94151 18.5637C2.76909 19.1396 0.775298 19.5413 0.264632 19.3045ZM10.4622 15.7479C10.6022 15.66 10.7977 15.3603 10.8968 15.082C11.0537 14.6411 11.0529 14.5086 10.8907 14.0527C10.4466 12.805 8.86089 12.9687 8.61411 14.2878C8.52658 14.7555 8.80446 15.5108 9.15128 15.748C9.44341 15.9477 10.1443 15.9477 10.4623 15.7479H10.4622ZM10.3859 11.401C10.5561 11.2012 10.696 10.9515 10.6969 10.8461C10.6978 10.7406 11.1857 10.2931 11.7812 9.85151C13.1057 8.86927 13.4988 8.25053 13.5593 7.05237C13.6133 5.9843 13.2321 5.06827 12.4717 4.43903C11.9502 4.00746 11.8884 3.99374 10.256 3.94688C8.43003 3.89448 8.11008 3.98799 7.37523 4.78889C6.87565 5.33339 6.64499 5.91329 6.62004 6.68751C6.6029 7.22378 6.65577 7.40498 6.89624 7.63373C7.05989 7.78934 7.33191 7.91666 7.50071 7.91666C7.87425 7.91666 8.42639 7.3028 8.42639 6.8875C8.42639 6.72101 8.53982 6.45162 8.67851 6.28884C8.89233 6.03783 9.09868 5.99287 10.037 5.99287C11.3046 5.99287 11.705 6.19953 11.7018 6.85217C11.699 7.43374 11.6333 7.50708 10.2888 8.43044C9.20681 9.17349 9.04805 9.33549 8.9363 9.81069C8.5928 11.2712 9.57688 12.3508 10.3859 11.401L10.3859 11.401Z" fill="current"/>
</svg>
