<svg width="300" height="300" viewBox="0 0 300 300" fill="none" xmlns="http://www.w3.org/2000/svg">
<g clip-path="url(#clip0_850_383)">
<path d="M290.243 33.8513C246.574 -25.8727 183.223 65.1082 138.298 85.3939C119.376 93.9381 103.335 57.8226 68.5207 86.3859C61.7379 91.9506 55.9307 98.5816 50.11 105.149C13.5082 146.446 -10.5164 165.841 4.58264 184.755C25.6289 211.119 65.5694 191.351 93.0674 202.442C136.423 219.929 140.536 301.79 201.833 283.53C263.886 265.045 221.619 201.313 238.103 160.538C242.408 149.888 252.523 142.855 261.294 135.437C289.76 111.361 314.291 66.7406 290.243 33.8513Z" fill="url(#paint0_linear_850_383)"/>
<path d="M259.787 201.588L229.654 94.8248C228.585 91.0379 225.13 88.4229 221.196 88.4229H85.5709L118.409 204.771C119.122 207.296 121.425 209.039 124.048 209.039H254.148C258.033 209.039 260.842 205.327 259.787 201.588Z" fill="#B6C4FF"/>
<path d="M206.469 207.071C206.469 207.733 206.496 208.388 206.537 209.039H254.148C258.033 209.039 260.842 205.327 259.787 201.588L253.579 179.592C248.99 176.991 243.691 175.5 238.041 175.5C220.604 175.5 206.469 189.635 206.469 207.071Z" fill="#9EAFFD"/>
<path d="M233.313 107.768C231.93 104.592 228.778 102.483 225.25 102.483L89.5413 102.489L85.5686 88.4204H221.196C225.127 88.4204 228.584 91.0395 229.656 94.8247L233.313 107.768Z" fill="#9EAFFD"/>
<path d="M217.638 88.4248C213.707 88.4248 210.25 91.0381 209.177 94.8232L173.761 220.311C173.048 222.835 170.745 224.579 168.122 224.579H40.9389C37.0541 224.579 34.2446 220.867 35.2998 217.128L69.818 94.8232C70.8844 91.0381 74.3414 88.4248 78.2789 88.4248H217.638Z" fill="white"/>
<path d="M69.8179 94.8232L60.2836 128.607C61.6119 128.83 62.9742 128.952 64.3664 128.952C77.8869 128.952 88.8474 117.991 88.8474 104.471C88.8474 98.3301 86.5816 92.7221 82.8468 88.4248H78.2801C74.3414 88.4248 70.8843 91.0381 69.8179 94.8232Z" fill="#D1DDFF"/>
<path d="M194.283 147.594L192.631 153.454H83.635C82.012 153.454 80.7053 152.141 80.7053 150.524C80.7053 148.901 82.012 147.594 83.635 147.594H194.283Z" fill="#FF7EB7"/>
<path d="M78.2789 88.4258C74.3414 88.4258 70.8844 91.0391 69.818 94.8242L65.6807 109.483H205.04L209.177 94.8242C210.25 91.0391 213.707 88.4258 217.638 88.4258H78.2789Z" fill="#FF7EB7"/>
<path d="M88.8457 104.473C88.8457 106.189 88.6699 107.865 88.3301 109.482H65.6777L69.8203 94.8223C70.8867 91.0371 74.3438 88.4238 78.2813 88.4238H82.8457C86.5781 92.7246 88.8457 98.332 88.8457 104.473Z" fill="#FF5BA7"/>
<path d="M111.789 72.3872C102.946 72.3872 95.751 79.5813 95.751 88.4249C95.751 97.2685 102.946 104.463 111.789 104.463C113.406 104.463 114.718 103.152 114.718 101.533C114.718 99.9151 113.406 98.6038 111.789 98.6038C106.176 98.6038 101.61 94.0376 101.61 88.4249C101.61 82.8128 106.176 78.2466 111.789 78.2466C117.401 78.2466 121.968 82.8128 121.968 88.4249H127.827C127.827 79.5813 120.632 72.3872 111.789 72.3872Z" fill="#6582FD"/>
<path d="M169.532 72.3872C160.689 72.3872 153.494 79.5813 153.494 88.4249C153.494 97.2685 160.689 104.463 169.532 104.463C171.15 104.463 172.462 103.152 172.462 101.533C172.462 99.9151 171.15 98.6038 169.532 98.6038C163.92 98.6038 159.353 94.0376 159.353 88.4249C159.353 82.8128 163.92 78.2466 169.532 78.2466C175.145 78.2466 179.711 82.8128 179.711 88.4249H185.57C185.57 79.5813 178.375 72.3872 169.532 72.3872Z" fill="#6582FD"/>
<path d="M238.041 224.58C255.477 224.58 269.612 210.445 269.612 193.008C269.612 175.572 255.477 161.437 238.041 161.437C220.604 161.437 206.469 175.572 206.469 193.008C206.469 210.445 220.604 224.58 238.041 224.58Z" fill="#6582FD"/>
<path d="M238.041 217.489C251.561 217.489 262.522 206.529 262.522 193.008C262.522 179.488 251.561 168.527 238.041 168.527C224.52 168.527 213.56 179.488 213.56 193.008C213.56 206.529 224.52 217.489 238.041 217.489Z" fill="white"/>
<path d="M229.55 205.631C228.865 205.631 228.177 205.392 227.621 204.905C226.404 203.839 226.281 201.988 227.347 200.771L235.836 191.078C236.902 189.861 238.753 189.738 239.97 190.804C241.187 191.87 241.31 193.721 240.244 194.938L231.756 204.631C231.177 205.293 230.365 205.631 229.55 205.631Z" fill="#6582FD"/>
<path d="M238.04 195.938C237.309 195.938 236.576 195.666 236.007 195.119L231.033 190.324C229.869 189.201 229.834 187.347 230.957 186.182C232.079 185.016 233.934 184.982 235.099 186.105L240.073 190.899C241.238 192.022 241.273 193.877 240.15 195.042C239.575 195.638 238.808 195.938 238.04 195.938Z" fill="#FF5BA7"/>
<path d="M167.426 167.59C169.044 167.59 170.355 166.279 170.355 164.661C170.355 163.043 169.044 161.731 167.426 161.731C165.808 161.731 164.496 163.043 164.496 164.661C164.496 166.279 165.808 167.59 167.426 167.59Z" fill="#6582FD"/>
<path d="M80.6438 180.704C82.2618 180.704 83.5735 179.392 83.5735 177.774C83.5735 176.156 82.2618 174.844 80.6438 174.844C79.0258 174.844 77.7141 176.156 77.7141 177.774C77.7141 179.392 79.0258 180.704 80.6438 180.704Z" fill="#6582FD"/>
<path d="M97.1678 180.704C98.7859 180.704 100.098 179.392 100.098 177.774C100.098 176.156 98.7859 174.844 97.1678 174.844C95.5498 174.844 94.2382 176.156 94.2382 177.774C94.2382 179.392 95.5498 180.704 97.1678 180.704Z" fill="#6582FD"/>
<path d="M113.692 180.704C115.31 180.704 116.622 179.392 116.622 177.774C116.622 176.156 115.31 174.844 113.692 174.844C112.074 174.844 110.763 176.156 110.763 177.774C110.763 179.392 112.074 180.704 113.692 180.704Z" fill="#6582FD"/>
<path d="M130.216 180.704C131.834 180.704 133.146 179.392 133.146 177.774C133.146 176.156 131.834 174.844 130.216 174.844C128.598 174.844 127.287 176.156 127.287 177.774C127.287 179.392 128.598 180.704 130.216 180.704Z" fill="#6582FD"/>
<path d="M146.741 180.704C148.359 180.704 149.671 179.392 149.671 177.774C149.671 176.156 148.359 174.844 146.741 174.844C145.123 174.844 143.811 176.156 143.811 177.774C143.811 179.392 145.123 180.704 146.741 180.704Z" fill="#6582FD"/>
<path d="M163.265 180.704C164.883 180.704 166.195 179.392 166.195 177.774C166.195 176.156 164.883 174.844 163.265 174.844C161.647 174.844 160.335 176.156 160.335 177.774C160.335 179.392 161.647 180.704 163.265 180.704Z" fill="#6582FD"/>
<path d="M76.483 193.817C78.1011 193.817 79.4127 192.505 79.4127 190.887C79.4127 189.269 78.1011 187.958 76.483 187.958C74.865 187.958 73.5533 189.269 73.5533 190.887C73.5533 192.505 74.865 193.817 76.483 193.817Z" fill="#6582FD"/>
<path d="M93.0071 193.817C94.6251 193.817 95.9368 192.505 95.9368 190.887C95.9368 189.269 94.6251 187.958 93.0071 187.958C91.3891 187.958 90.0774 189.269 90.0774 190.887C90.0774 192.505 91.3891 193.817 93.0071 193.817Z" fill="#6582FD"/>
<path d="M109.532 193.817C111.15 193.817 112.461 192.505 112.461 190.887C112.461 189.269 111.15 187.958 109.532 187.958C107.914 187.958 106.602 189.269 106.602 190.887C106.602 192.505 107.914 193.817 109.532 193.817Z" fill="#6582FD"/>
<path d="M126.056 193.817C127.674 193.817 128.985 192.505 128.985 190.887C128.985 189.269 127.674 187.958 126.056 187.958C124.438 187.958 123.126 189.269 123.126 190.887C123.126 192.505 124.438 193.817 126.056 193.817Z" fill="#6582FD"/>
<path d="M142.58 193.817C144.198 193.817 145.51 192.505 145.51 190.887C145.51 189.269 144.198 187.958 142.58 187.958C140.962 187.958 139.651 189.269 139.651 190.887C139.651 192.505 140.962 193.817 142.58 193.817Z" fill="#6582FD"/>
<path d="M159.104 193.817C160.722 193.817 162.034 192.505 162.034 190.887C162.034 189.269 160.722 187.958 159.104 187.958C157.486 187.958 156.175 189.269 156.175 190.887C156.175 192.505 157.486 193.817 159.104 193.817Z" fill="#6582FD"/>
<path d="M72.3223 206.931C73.9403 206.931 75.2519 205.619 75.2519 204.001C75.2519 202.383 73.9403 201.071 72.3223 201.071C70.7042 201.071 69.3926 202.383 69.3926 204.001C69.3926 205.619 70.7042 206.931 72.3223 206.931Z" fill="#6582FD"/>
<path d="M88.8469 206.931C90.4649 206.931 91.7766 205.619 91.7766 204.001C91.7766 202.383 90.4649 201.071 88.8469 201.071C87.2289 201.071 85.9172 202.383 85.9172 204.001C85.9172 205.619 87.2289 206.931 88.8469 206.931Z" fill="#6582FD"/>
<path d="M105.371 206.931C106.989 206.931 108.301 205.619 108.301 204.001C108.301 202.383 106.989 201.071 105.371 201.071C103.753 201.071 102.441 202.383 102.441 204.001C102.441 205.619 103.753 206.931 105.371 206.931Z" fill="#6582FD"/>
<path d="M121.896 206.931C123.514 206.931 124.825 205.619 124.825 204.001C124.825 202.383 123.514 201.071 121.896 201.071C120.277 201.071 118.966 202.383 118.966 204.001C118.966 205.619 120.277 206.931 121.896 206.931Z" fill="#6582FD"/>
<path d="M109.347 140.902H84.9105C83.2927 140.902 81.9808 139.59 81.9808 137.972V133.072C81.9808 131.454 83.2927 130.143 84.9105 130.143H109.347C110.965 130.143 112.277 131.454 112.277 133.072V137.972C112.277 139.59 110.965 140.902 109.347 140.902Z" fill="#6582FD"/>
<path d="M152.317 140.902H149.193C145.379 140.902 142.277 137.799 142.277 133.986V124.343C142.277 120.53 145.379 117.428 149.193 117.428H152.317C156.13 117.428 159.233 120.53 159.233 124.343V133.986C159.233 137.799 156.13 140.902 152.317 140.902ZM149.193 123.287C148.61 123.287 148.136 123.761 148.136 124.343V133.986C148.136 134.568 148.61 135.042 149.193 135.042H152.317C152.899 135.042 153.373 134.568 153.373 133.986V124.343C153.373 123.761 152.899 123.287 152.317 123.287H149.193Z" fill="#FF5BA7"/>
<path d="M169.201 140.902C167.583 140.902 166.271 139.59 166.271 137.972V123.287H166.011C164.393 123.287 163.082 121.975 163.082 120.357C163.082 118.74 164.393 117.428 166.011 117.428H169.201C170.819 117.428 172.131 118.74 172.131 120.357V137.972C172.131 139.59 170.819 140.902 169.201 140.902Z" fill="#FF5BA7"/>
<path d="M64.3658 114.89C77.8863 114.89 88.8469 103.929 88.8469 90.4088C88.8469 76.8883 77.8863 65.9277 64.3658 65.9277C50.8453 65.9277 39.8848 76.8883 39.8848 90.4088C39.8848 103.929 50.8453 114.89 64.3658 114.89Z" fill="#0BBBEF"/>
<path d="M61.5152 99.7593C60.7658 99.7593 60.0152 99.4733 59.4439 98.9015L52.3037 91.7618C51.1594 90.6175 51.1594 88.7624 52.3037 87.6187C53.4469 86.4749 55.3031 86.4749 56.4463 87.6187L61.5146 92.687L72.2847 81.9169C73.4279 80.7731 75.2842 80.7731 76.4273 81.9169C77.5717 83.0612 77.5717 84.9163 76.4273 86.0601L63.5859 98.9015C63.0146 99.4728 62.2646 99.7593 61.5152 99.7593Z" fill="white"/>
<path d="M33.4313 143.835C28.9078 143.835 25.2281 140.155 25.2281 135.632C25.2281 131.108 28.9078 127.429 33.4313 127.429C37.9547 127.429 41.6344 131.108 41.6344 135.632C41.6344 140.155 37.9541 143.835 33.4313 143.835ZM33.4313 133.288C32.1387 133.288 31.0875 134.339 31.0875 135.632C31.0875 136.924 32.1387 137.976 33.4313 137.976C34.7239 137.976 35.775 136.924 35.775 135.632C35.775 134.339 34.7233 133.288 33.4313 133.288Z" fill="#0BBBEF"/>
<path d="M248.915 88.1933C244.392 88.1933 240.712 84.5136 240.712 79.9901C240.712 75.4673 244.392 71.7876 248.915 71.7876C253.438 71.7876 257.118 75.4673 257.118 79.9901C257.118 84.513 253.438 88.1933 248.915 88.1933ZM248.915 77.647C247.622 77.647 246.571 78.6981 246.571 79.9901C246.571 81.2827 247.622 82.3339 248.915 82.3339C250.208 82.3339 251.259 81.2827 251.259 79.9901C251.259 78.6981 250.208 77.647 248.915 77.647Z" fill="#FF5BA7"/>
<path d="M202.01 243.63C200.392 243.63 199.08 242.319 199.08 240.7C199.08 238.654 197.415 236.99 195.369 236.99C193.751 236.99 192.439 235.678 192.439 234.06C192.439 232.442 193.751 231.13 195.369 231.13C197.415 231.13 199.08 229.466 199.08 227.419C199.08 225.801 200.392 224.49 202.01 224.49C203.627 224.49 204.939 225.801 204.939 227.419C204.939 229.466 206.604 231.13 208.65 231.13C210.268 231.13 211.58 232.442 211.58 234.06C211.58 235.678 210.268 236.99 208.65 236.99C206.604 236.99 204.939 238.654 204.939 240.7C204.939 242.319 203.627 243.63 202.01 243.63Z" fill="#0BBBEF"/>
<path d="M217.638 72.6051C216.021 72.6051 214.709 71.2938 214.709 69.6754C214.709 67.6293 213.044 65.9647 210.998 65.9647C209.38 65.9647 208.068 64.6533 208.068 63.035C208.068 61.4166 209.38 60.1053 210.998 60.1053C213.044 60.1053 214.709 58.4406 214.709 56.3945C214.709 54.7762 216.021 53.4648 217.638 53.4648C219.256 53.4648 220.568 54.7762 220.568 56.3945C220.568 58.4406 222.233 60.1053 224.279 60.1053C225.897 60.1053 227.208 61.4166 227.208 63.035C227.208 64.6533 225.897 65.9647 224.279 65.9647C222.233 65.9647 220.568 67.6293 220.568 69.6754C220.568 71.2938 219.256 72.6051 217.638 72.6051Z" fill="#6582FD"/>
<path d="M76.6196 254.924C75.0018 254.924 73.6899 253.613 73.6899 251.994C73.6899 249.948 72.0252 248.284 69.9791 248.284C68.3614 248.284 67.0494 246.972 67.0494 245.354C67.0494 243.736 68.3614 242.424 69.9791 242.424C72.0252 242.424 73.6899 240.759 73.6899 238.713C73.6899 237.095 75.0018 235.783 76.6196 235.783C78.2373 235.783 79.5493 237.095 79.5493 238.713C79.5493 240.759 81.2139 242.424 83.26 242.424C84.8778 242.424 86.1897 243.736 86.1897 245.354C86.1897 246.972 84.8778 248.284 83.26 248.284C81.2139 248.284 79.5493 249.948 79.5493 251.994C79.5493 253.613 78.2373 254.924 76.6196 254.924Z" fill="#FF5BA7"/>
<path d="M249.008 163.398L229.653 94.8248C228.585 91.0379 225.129 88.4229 221.195 88.4229H85.5709L85.5715 88.4252H78.2789C74.3414 88.4252 70.8844 91.0385 69.818 94.8236L35.2998 217.129C34.2446 220.868 37.0541 224.579 40.9389 224.579H168.122C170.745 224.579 173.048 222.836 173.761 220.312L176.943 209.039H210.844C216.337 218.338 226.458 224.579 238.041 224.579C255.477 224.579 269.612 210.444 269.612 193.008C269.611 179.429 261.037 167.854 249.008 163.398Z" fill="url(#paint1_linear_850_383)"/>
</g>
<defs>
<linearGradient id="paint0_linear_850_383" x1="72.2567" y1="252.763" x2="321" y2="-106.5" gradientUnits="userSpaceOnUse">
<stop stop-color="white" stop-opacity="0"/>
<stop offset="1" stop-color="#0BBBEF"/>
</linearGradient>
<linearGradient id="paint1_linear_850_383" x1="152.344" y1="224.58" x2="152.344" y2="88.4229" gradientUnits="userSpaceOnUse">
<stop stop-color="#6582FD" stop-opacity="0.6"/>
<stop offset="0.0496" stop-color="#839AFD" stop-opacity="0.57"/>
<stop offset="0.116" stop-color="#A4B5FE" stop-opacity="0.53"/>
<stop offset="0.1902" stop-color="#C1CCFE" stop-opacity="0.486"/>
<stop offset="0.2728" stop-color="#D8DFFE" stop-opacity="0.436"/>
<stop offset="0.3676" stop-color="#E9EDFF" stop-opacity="0.379"/>
<stop offset="0.4818" stop-color="#F6F8FF" stop-opacity="0.31"/>
<stop offset="0.6355" stop-color="#FDFDFF" stop-opacity="0.218"/>
<stop offset="0.9972" stop-color="white" stop-opacity="0"/>
</linearGradient>
<clipPath id="clip0_850_383">
<rect width="300" height="300" fill="white"/>
</clipPath>
</defs>
</svg>
